<svg width="362" height="109" viewBox="0 0 362 109" fill="none" xmlns="http://www.w3.org/2000/svg">
<path fill-rule="evenodd" clip-rule="evenodd" d="M324.891 100.682C324.876 100.969 324.855 101.204 324.855 101.44C324.852 102.908 324.894 104.381 324.837 105.849C324.811 106.544 325.019 106.841 325.707 107.017C333.866 109.115 342.135 109.424 350.467 108.524C353.001 108.249 355.496 107.708 357.727 106.358C359.353 105.375 360.483 104.019 360.95 102.139C361.773 98.8139 360.637 96.0344 357.635 94.3966C356.587 93.8252 355.437 93.3892 354.284 93.0703C350.794 92.1047 347.191 91.957 343.601 91.7207C340.693 91.5286 337.781 91.3363 334.881 91.0482C334.078 90.9693 333.25 90.6592 332.538 90.2627C331.478 89.6714 331.455 88.5139 332.489 87.8847C333.166 87.472 333.962 87.1225 334.738 87.0323C337.152 86.7516 339.578 86.4858 342.004 86.4363C347.368 86.3279 352.629 87.1102 357.783 88.6012C357.983 88.6594 358.193 88.6816 358.442 88.7281C358.461 88.4772 358.487 88.3059 358.489 88.1346C358.492 86.5988 358.473 85.062 358.502 83.5267C358.511 83.0808 358.337 82.9291 357.938 82.8244C350.161 80.7617 342.291 80.258 334.331 81.4578C331.888 81.8258 329.532 82.5215 327.471 83.9686C324.271 86.2174 323.714 90.7737 326.3 93.6099C327.251 94.654 328.458 95.3238 329.766 95.8165C332.863 96.9839 336.108 97.3375 339.377 97.5305C342.574 97.7193 345.777 97.8225 348.969 98.0749C350.288 98.1796 351.594 98.5331 352.885 98.8547C353.561 99.0233 354.061 99.5466 354.117 100.256C354.169 100.94 353.708 101.431 353.149 101.797C353.021 101.88 352.893 101.976 352.75 102.023C351.793 102.328 350.851 102.726 349.871 102.9C346.395 103.516 342.886 103.507 339.372 103.352C334.592 103.141 329.899 102.471 325.391 100.785C325.255 100.734 325.104 100.725 324.891 100.682M311.963 100.24C314.027 98.2968 314.29 95.814 313.791 93.1997C313.422 91.2551 312.281 89.8035 310.511 88.9314C309.558 88.4586 308.534 88.0928 307.505 87.8244C306.527 87.5695 305.514 87.4586 304.509 87.3032V87.3909C304.117 87.3465 303.727 87.2641 303.337 87.2629C298.966 87.2367 294.597 87.2222 290.229 87.2098C290.061 87.2098 289.896 87.2505 289.72 87.2738V102.956H290.547C294.171 102.955 297.794 102.958 301.418 102.954C302.351 102.953 303.285 102.939 304.218 102.929V102.927C305.083 102.795 305.951 102.682 306.81 102.525C308.71 102.178 310.531 101.588 311.963 100.24M316.786 85.7492C320.195 88.424 321.509 92.0396 321.136 96.2707C320.657 101.714 317.354 104.944 312.51 106.85C309.944 107.86 307.251 108.297 304.509 108.441V108.457C299.988 108.489 295.466 108.525 290.948 108.55C288.422 108.562 285.898 108.536 283.373 108.563C282.808 108.569 282.618 108.436 282.628 107.838C282.663 105.381 282.64 102.924 282.641 100.468C282.641 94.5244 282.641 88.5804 282.643 82.6374V81.6595C282.868 81.6373 283.055 81.6054 283.244 81.6054C289.806 81.6089 296.369 81.6141 302.932 81.6264C303.459 81.6275 303.983 81.6941 304.509 81.7271V81.7482C308.938 82.0302 313.184 82.9243 316.786 85.7492ZM172.312 64.946C174.464 61.4859 176.555 58.1216 178.715 54.6486C180.747 58.119 182.722 61.4909 184.745 64.946H172.312ZM158.8 75.8658C160.841 75.8658 162.883 75.8519 164.925 75.8756C165.399 75.8818 165.678 75.7388 165.925 75.3261C166.814 73.8399 167.753 72.3844 168.649 70.9014C168.859 70.553 169.103 70.441 169.5 70.4421C175.472 70.4523 181.445 70.4533 187.416 70.4421C187.82 70.441 188.058 70.5726 188.256 70.9189C189.105 72.4041 189.986 73.8693 190.828 75.357C191.038 75.7253 191.274 75.8792 191.709 75.8741C193.838 75.8545 195.969 75.8679 198.098 75.8643C198.28 75.8643 198.46 75.825 198.722 75.7966C197.79 74.2525 196.908 72.7932 196.024 71.3338C191.604 64.0373 187.181 56.7433 182.77 49.4446C182.539 49.0617 182.282 48.9115 181.829 48.9162C179.809 48.9409 177.788 48.9395 175.769 48.9177C175.323 48.9126 175.052 49.0504 174.811 49.4312C172.87 52.5085 170.909 55.576 168.952 58.6424C165.884 63.4474 162.813 68.2488 159.746 73.0528C159.182 73.9337 158.628 74.8187 157.968 75.8658L158.8 75.8658ZM218.896 87.3192C220.94 90.8144 222.905 94.1724 224.919 97.6192H212.495C214.635 94.1761 216.73 90.8057 218.896 87.3192M238.94 108.547C238.708 108.152 238.547 107.876 238.38 107.6C236.89 105.147 235.396 102.693 233.909 100.236C230.239 94.1797 226.569 88.1237 222.909 82.06C222.703 81.7164 222.471 81.5905 222.07 81.5956C220.029 81.6152 217.986 81.6163 215.945 81.5967C215.498 81.5905 215.23 81.7335 214.989 82.1189C214.029 83.6644 213.03 85.1843 212.051 86.717C207.959 93.1306 203.868 99.5441 199.777 105.959C199.254 106.781 198.738 107.61 198.201 108.463C198.333 108.507 198.391 108.544 198.451 108.544C200.756 108.548 203.06 108.563 205.364 108.528C205.598 108.525 205.9 108.265 206.044 108.044C206.97 106.605 207.873 105.152 208.755 103.686C208.986 103.305 209.248 103.16 209.7 103.161C215.651 103.176 221.6 103.178 227.549 103.161C228.042 103.159 228.294 103.34 228.523 103.741C229.361 105.208 230.218 106.661 231.092 108.105C231.208 108.299 231.469 108.525 231.666 108.528C234.036 108.557 236.405 108.547 238.94 108.547M191.354 32.5722V43.1125H198.363C198.383 42.9882 198.403 42.9242 198.403 42.8612C198.406 34.1941 198.405 25.5269 198.415 16.8601C198.417 16.455 198.269 16.3255 197.876 16.3281C195.858 16.3405 193.836 16.3317 191.815 16.3379C191.67 16.3379 191.523 16.387 191.315 16.4252V26.9212H168.888V26.1699C168.888 23.1195 168.877 20.0691 168.9 17.0202C168.904 16.4648 168.726 16.3121 168.188 16.3208C166.321 16.3489 164.454 16.3539 162.588 16.3183C161.982 16.307 161.81 16.4932 161.811 17.0991C161.83 25.5469 161.823 33.9933 161.824 42.4412C161.824 42.6714 161.847 42.9019 161.857 43.1223H168.881V32.5722H191.354ZM249.479 87.2367C249.731 87.2247 249.945 87.2073 250.158 87.2087C254.833 87.2171 259.511 87.1851 264.188 87.2727C265.526 87.2985 266.891 87.5546 268.181 87.9251C269.545 88.3132 270.114 89.3169 270.112 90.7294C270.111 92.1 269.51 92.9891 268.216 93.5175C266.654 94.1528 264.995 94.1811 263.353 94.1936C258.875 94.2339 254.396 94.2081 249.916 94.207C249.788 94.2059 249.659 94.186 249.479 94.1698L249.479 87.2367ZM268.448 99.491C269.801 99.0331 271.109 98.7065 272.318 98.1574C275.462 96.734 277.193 94.292 277.213 90.7834C277.233 87.3464 275.611 84.9034 272.549 83.3883C269.933 82.0955 267.107 81.6682 264.243 81.6424C257.131 81.5759 250.014 81.6104 242.901 81.6053C242.753 81.6053 242.603 81.6337 242.396 81.6544C242.383 81.9305 242.36 82.1879 242.36 82.445C242.357 90.3648 242.357 98.2868 242.357 106.205C242.357 106.819 242.371 107.435 242.354 108.049C242.344 108.408 242.461 108.558 242.842 108.557C244.95 108.541 247.059 108.546 249.165 108.541C249.244 108.54 249.324 108.491 249.466 108.444V99.7794H250.244C253.296 99.7794 256.349 99.7953 259.399 99.7658C260.017 99.7597 260.462 99.9259 260.906 100.364C263.518 102.934 266.165 105.467 268.784 108.029C269.173 108.407 269.567 108.572 270.119 108.565C272.513 108.534 274.907 108.553 277.299 108.55C277.53 108.55 277.757 108.525 278.171 108.503C274.839 105.414 271.648 102.458 268.448 99.491ZM211.784 37.6987V32.3593H235.963V27.0405H211.772V21.7255H237.682C237.682 20.1123 237.658 18.6002 237.691 17.0903C237.704 16.5117 237.573 16.3084 236.934 16.3095C226.461 16.3306 215.984 16.3244 205.511 16.323C204.655 16.323 204.653 16.3244 204.653 17.1962C204.651 25.6218 204.651 34.0489 204.653 42.4743C204.653 42.6874 204.671 42.9005 204.682 43.1296H237.642V37.6987H211.784ZM283.808 54.4195V48.9715H250.921V75.8116H283.816V70.3806H257.986V65.062H282.176V59.7272H280.938C273.669 59.7272 266.402 59.7272 259.135 59.7286C258.893 59.7286 258.651 59.7174 258.41 59.7323C258.086 59.7519 257.928 59.6399 257.931 59.2864C257.941 57.7088 257.936 56.1302 257.936 54.4195L283.808 54.4195ZM189.202 100.287C189.143 100.277 189.084 100.266 189.025 100.257C188.828 99.7743 188.625 99.2928 188.434 98.8088C186.247 93.2167 184.064 87.6221 181.857 82.0378C181.78 81.8444 181.463 81.625 181.255 81.6214C179.324 81.5894 177.392 81.6152 175.459 81.5945C175.055 81.5905 174.881 81.7447 174.753 82.1102C174.449 82.9771 174.103 83.8317 173.768 84.6888C171.973 89.2797 170.176 93.8721 168.374 98.4604C168.124 99.0982 167.849 99.7252 167.545 100.453C167.409 100.155 167.317 99.9812 167.246 99.798C164.958 93.9397 162.666 88.084 160.394 82.2185C160.218 81.7607 160.003 81.5821 159.498 81.5894C157.5 81.6203 155.502 81.6029 153.503 81.6054C153.274 81.6054 153.045 81.6286 152.727 81.6472C152.827 81.9477 152.878 82.1545 152.961 82.348C156.553 90.9176 160.15 99.4863 163.732 108.061C163.884 108.428 164.06 108.56 164.448 108.559C166.403 108.543 168.357 108.541 170.311 108.56C170.709 108.563 170.923 108.435 171.029 108.06C171.093 107.829 171.202 107.61 171.29 107.385C173.54 101.654 175.791 95.9224 178.044 90.19C178.107 90.0274 178.199 89.8736 178.329 89.6125C178.739 90.6322 179.104 91.5225 179.456 92.4163C181.482 97.5774 183.511 102.737 185.52 107.905C185.705 108.384 185.932 108.577 186.47 108.565C188.182 108.527 189.896 108.563 191.608 108.548C192.902 108.535 192.594 108.786 193.112 107.553C196.634 99.1685 200.137 90.7737 203.646 82.3837C203.734 82.1705 203.795 81.944 203.882 81.6829C203.702 81.6462 203.601 81.609 203.499 81.609C201.325 81.6043 199.151 81.5919 196.977 81.624C196.779 81.6276 196.483 81.8763 196.402 82.0807C194.763 86.1678 193.146 90.2627 191.529 94.3583C190.75 96.3337 189.977 98.3102 189.202 100.287M209.416 58.4921C209.638 58.7976 209.757 58.9402 209.852 59.0955C213.195 64.4806 216.543 69.8621 219.864 75.2585C220.141 75.7115 220.427 75.8879 220.955 75.8778C222.689 75.8472 224.424 75.84 226.158 75.8828C226.744 75.8963 227.056 75.6944 227.354 75.2057C230.368 70.2872 233.406 65.3847 236.442 60.4796C236.824 59.8592 237.22 59.2472 237.608 58.6314C237.764 59.1755 237.81 59.6755 237.81 60.1744C237.818 65.1777 237.821 70.1799 237.808 75.1846C237.806 75.6785 237.915 75.8865 238.462 75.8778C240.327 75.8472 242.195 75.8679 244.061 75.8632C244.227 75.8632 244.394 75.8224 244.56 75.8018V48.9901C244.458 48.9642 244.396 48.9348 244.333 48.9348C241.852 48.9312 239.371 48.9162 236.889 48.9497C236.659 48.9533 236.353 49.2083 236.214 49.4286C232.498 55.3272 228.797 61.236 225.09 67.1433C224.608 67.9139 224.119 68.6812 223.583 69.5286C222.05 67.079 220.587 64.7396 219.121 62.4008C216.41 58.0696 213.693 53.7413 210.996 49.4014C210.767 49.0359 210.522 48.909 210.1 48.9177C208.739 48.9446 207.377 48.9275 206.016 48.9275H202.62C202.599 49.181 202.569 49.373 202.569 49.5654C202.568 58.1227 202.573 66.6801 202.558 75.2388C202.557 75.7254 202.694 75.884 203.19 75.8756C205.078 75.8508 206.967 75.8679 208.855 75.8632C209.022 75.8632 209.189 75.8236 209.416 75.7966V58.4921M155.228 57.9502C155.269 57.779 155.304 57.6989 155.304 57.6189C155.309 55.821 155.325 54.0231 155.291 52.2276C155.287 52.0182 155.042 51.724 154.835 51.6243C153.968 51.2069 153.083 50.8276 152.201 50.4421V50.3905C149.425 49.3089 146.541 48.6761 143.582 48.3965C140.075 48.0666 136.571 48.1048 133.089 48.6772C130.016 49.1809 127.092 50.0835 124.429 51.7818C117.968 55.901 117.498 64.0768 120.62 68.931C122.448 71.7708 125.161 73.4495 128.251 74.5812C131.161 75.6449 134.191 76.0846 137.271 76.2548C141.19 76.469 145.073 76.2693 148.88 75.2336C149.997 74.9307 151.094 74.5613 152.201 74.2241V74.0379C153.042 73.6674 153.881 73.2931 154.73 72.9444C155.138 72.7756 155.259 72.5331 155.256 72.0949C155.239 68.2797 155.246 64.4634 155.245 60.6482C155.244 60.4392 155.222 60.2307 155.206 60.0031H152.201C145.663 59.997 139.127 59.9918 132.591 59.9897C132.505 59.9897 132.42 60.0166 132.286 60.0377V64.61H148.356C148.356 66.1912 148.372 67.6996 148.333 69.2045C148.329 69.3597 148.015 69.5853 147.808 69.6431C144.745 70.4914 141.63 70.8843 138.447 70.7046C135.829 70.5566 133.244 70.25 130.811 69.1972C128.75 68.303 127.084 66.9817 126.273 64.7922C124.948 61.2185 126.576 57.4182 130.166 55.6574C132.989 54.2733 136.017 53.8951 139.107 53.8002C143.527 53.6634 147.739 54.5442 151.78 56.273V56.3159C152.915 56.8542 154.051 57.3924 155.228 57.9502M156.656 16.9696C156.668 16.4314 156.474 16.3121 155.974 16.3183C154.718 16.3343 153.458 16.3084 152.201 16.2935V16.2874C152.174 16.2888 152.148 16.291 152.121 16.2925C152.007 16.291 151.895 16.2888 151.78 16.2874V16.3106C151.637 16.3183 151.492 16.3245 151.348 16.3255C140.71 16.3266 130.07 16.3245 119.429 16.3281C117.737 16.3292 118.066 16.1681 118.035 17.7209C118.011 19.0312 118.03 20.3426 118.03 21.7256H118.891H132.646C133.931 21.7256 133.925 21.7256 133.925 22.9904C133.922 29.4396 133.925 35.8898 133.926 42.3401V43.142H140.902V21.7627C141.204 21.7478 141.439 21.7267 141.676 21.7267C143.144 21.7245 144.614 21.7306 146.084 21.7245C148.123 21.7158 150.161 21.6998 152.201 21.6863H156.643C156.643 20.0655 156.621 18.5163 156.656 16.9696M144.046 97.6021C142.024 94.1492 140.058 90.7933 138.026 87.3243C135.87 90.7933 133.779 94.1637 131.643 97.6021H144.046ZM157.56 107.96C157.65 108.106 157.72 108.267 157.888 108.589H151.78V108.571C150.693 108.767 150.13 108.169 149.661 107.243C149.037 106.014 148.28 104.853 147.602 103.651C147.407 103.309 147.181 103.162 146.772 103.163C140.763 103.177 134.754 103.168 128.745 103.191C128.483 103.192 128.12 103.394 127.976 103.615C127.041 105.046 126.14 106.5 125.26 107.965C125.008 108.385 124.732 108.573 124.217 108.565C122.2 108.531 120.183 108.551 118.165 108.55H117.319C117.801 107.765 118.199 107.1 118.616 106.446C123.323 99.0539 128.034 91.6629 132.744 84.2729C133.227 83.5168 133.698 82.7484 134.234 82.0302C134.398 81.8113 134.757 81.6265 135.028 81.6214C137.111 81.5883 139.194 81.5894 141.278 81.6214C141.522 81.6251 141.86 81.8211 141.988 82.0291C144.933 86.8538 147.852 91.6959 150.785 96.5308C151.234 97.2709 151.727 97.9876 152.201 98.7143V99.2412C152.693 100.012 153.189 100.782 153.668 101.562C154.974 103.689 156.265 105.826 157.56 107.96ZM87.7454 56.4011C87.5523 56.5327 87.4709 56.5723 87.4119 56.6312C84.4797 59.5548 81.5453 62.4757 78.6313 65.4166C78.448 65.6024 78.3557 65.9559 78.3531 66.2319C78.3335 68.9496 78.3408 71.6661 78.3433 74.3852C78.3433 74.543 78.3728 74.7019 78.4 74.9714C79.7681 73.6426 81.0402 72.3782 82.3468 71.1515C82.8233 70.702 83.1596 70.217 83.3651 69.5888C84.5216 66.074 85.7111 62.572 86.8846 59.0649C87.1668 58.2212 87.4316 57.3727 87.7454 56.401M68.1132 65.0558C68.4186 64.7797 68.5848 64.6394 68.7401 64.4892C71.7534 61.5534 74.7645 58.6113 77.7826 55.6769C82.4018 51.1857 87.0287 46.7007 91.6417 42.2011C91.8632 41.9844 92.0432 41.6753 92.1316 41.376C93.1895 37.8514 94.2241 34.3209 95.2645 30.7901C95.4602 30.1202 95.6438 29.4442 95.8704 28.6365C95.6624 28.7816 95.5849 28.8212 95.5246 28.8802C92.8658 31.5193 90.2031 34.1547 87.552 36.8011C84.467 39.882 81.3934 42.9768 78.311 46.0617C75.0427 49.3325 71.7658 52.5946 68.511 55.8777C68.3066 56.0832 68.1575 56.4417 68.1539 56.7323C68.1157 58.7925 68.1219 60.8551 68.1132 62.9153C68.1106 63.5681 68.1132 64.2208 68.1132 65.0558ZM104.3 0.109811C104.255 0.0738586 104.212 0.0396562 104.168 0.00369826C103.14 1.05064 102.119 2.10346 101.083 3.14166C96.8087 7.42454 92.5368 11.7088 88.2565 15.9818C83.4747 20.7527 78.6769 25.5061 73.8998 30.2781C68.67 35.4996 63.4474 40.7283 58.2394 45.9705C58.0387 46.1727 57.9132 46.5381 57.9081 46.8302C57.8689 49.3522 57.8638 51.8753 57.8514 54.3973C57.8503 54.586 57.8761 54.7744 57.8958 55.0464C58.0794 54.9009 58.2023 54.8209 58.3049 54.7202C62.998 50.1082 67.6936 45.4978 72.3815 40.8821C77.5524 35.7887 82.7186 30.6895 87.8881 25.5949C91.9484 21.5939 96.0159 17.5991 100.067 13.5904C100.288 13.3711 100.474 13.0682 100.564 12.7703C101.24 10.5488 101.886 8.3188 102.541 6.09099C103.128 4.09703 103.715 2.10346 104.3 0.109811ZM16.6742 56.3938C16.7346 56.6854 16.7517 56.8516 16.8048 57.0069C18.2823 61.3417 19.7566 65.6777 21.2563 70.0048C21.3869 70.3795 21.6356 70.7439 21.9164 71.0282C23.2761 72.3978 24.6613 73.7401 26.0469 75.0823C26.5444 75.565 27.0702 76.018 27.6488 76.5428C26.6156 77.5575 25.7192 78.4542 24.8006 79.3295C24.5297 79.587 24.4373 79.8124 24.5875 80.1842C25.1086 81.4872 25.5937 82.8011 26.0949 84.1114C26.3411 84.7553 26.5949 85.3983 26.8447 86.0399C26.936 86.0915 27.0284 86.1446 27.1193 86.1962C28.7449 84.4597 30.3715 82.7261 32.0858 80.8962C33.9911 82.8996 35.7839 84.7848 37.6055 86.6999C37.5782 86.7307 37.4833 86.8465 37.3786 86.9512C35.0511 89.2724 32.7273 91.601 30.3875 93.9112C30.1068 94.1883 30.0577 94.4138 30.2166 94.7695C30.4937 95.3892 30.7141 96.0317 30.9654 96.6613C31.4825 97.9581 32.0033 99.2509 32.5575 100.633C35.8443 97.3977 39.0536 94.2378 42.3095 91.0332C44.0939 92.8596 45.8181 94.627 47.6393 96.4926C43.6961 100.438 39.7405 104.396 35.7395 108.4C35.8814 108.416 35.981 108.438 36.0821 108.438C38.8896 108.439 41.6974 108.448 44.5063 108.425C44.7551 108.423 45.0533 108.273 45.2427 108.097C45.9708 107.432 46.665 106.73 47.3684 106.039C49.0383 104.396 50.7082 102.752 52.4138 101.071C52.6058 101.247 52.7684 101.385 52.9197 101.533C55.1278 103.698 57.3247 105.872 59.555 108.014C59.8038 108.253 60.2336 108.416 60.582 108.42C63.0385 108.455 65.4965 108.44 67.9534 108.441H68.5447C51.2941 91.1318 34.0329 73.8128 16.6742 56.3938M71.5604 100.862C71.7019 100.679 71.7524 100.637 71.7732 100.582C72.5209 98.6623 73.2511 96.7362 74.0184 94.8252C74.1882 94.4016 73.9442 94.2241 73.714 93.995C68.1369 88.4375 62.5547 82.8836 56.9845 77.3186C49.8004 70.1431 42.6282 62.9561 35.4477 55.7767C27.4148 47.7437 19.3782 39.7174 11.3478 31.6819C10.487 30.8212 9.6608 29.9232 8.81965 29.0428C8.75565 29.0872 8.69273 29.133 8.63018 29.177C8.66837 29.3817 8.6891 29.5898 8.74693 29.7868C9.83936 33.5082 10.9242 37.231 12.0461 40.9436C12.2308 41.5535 12.4501 42.2441 12.8774 42.6765C16.0522 45.8895 19.2822 49.0478 22.4962 52.2226C27.2708 56.9393 32.0413 61.6582 36.8245 66.3647C37.1642 66.6986 37.3046 67.0397 37.2962 67.5186C37.2642 69.4496 37.27 71.3806 37.2642 73.3103C37.2617 74.0652 37.2642 74.8202 37.2642 75.5748C37.3344 75.6155 37.4057 75.6537 37.4758 75.693C38.8538 74.202 40.2331 72.7106 41.6198 71.2094C41.9274 71.473 42.0642 71.5763 42.1864 71.6959C43.7956 73.2808 45.3917 74.8781 47.0173 76.4469C47.3951 76.8113 47.5591 77.1858 47.5529 77.7127C47.5257 80.082 47.5358 82.4513 47.5358 84.8209C47.5358 85.0315 47.554 85.2406 47.5726 85.6125C49.0948 84.1398 50.5135 82.768 51.9085 81.4196C52.0292 81.4763 52.0773 81.4873 52.1067 81.5166C53.9676 83.3455 55.8321 85.1718 57.6791 87.0152C57.8307 87.1669 57.9377 87.4363 57.9402 87.652C57.95 89.0114 57.9206 90.3712 57.9133 91.7304C57.9057 92.9003 57.9118 94.0702 57.9118 95.4238C59.3898 93.9976 60.732 92.7032 62.2776 91.2108C65.4066 94.4645 68.4704 97.6502 71.5604 100.862M77.2421 86.1653C75.6573 84.4624 74.0798 82.7655 72.4604 81.0242C70.9726 82.4625 69.6576 83.7321 68.203 85.1358C68.203 84.7063 68.2044 84.455 68.203 84.2026C68.2019 82.0316 68.2106 79.8591 68.1895 77.6869C68.187 77.4026 68.1317 77.0367 67.9531 76.8483C66.1206 74.9002 64.2561 72.9826 62.344 70.9988C60.8021 72.4913 59.4278 73.8212 57.8946 75.3053V74.4373C57.8946 72.0887 57.9033 69.7417 57.8822 67.3931C57.8797 67.116 57.7851 66.7687 57.604 66.5741C55.8392 64.6813 54.0474 62.8146 52.1142 60.785C50.5599 62.4808 49.1893 63.9768 47.8175 65.4733C47.735 65.4166 47.6513 65.3598 47.5688 65.3046C47.5575 65.1002 47.5368 64.8969 47.5368 64.6936C47.5393 62.2149 47.5615 59.7347 47.528 57.2557C47.5233 56.8898 47.3448 56.4342 47.0884 56.177C42.143 51.2312 37.1753 46.3054 32.2099 41.3796C24.9556 34.1842 17.6983 26.9888 10.4415 19.7971C8.40096 17.7751 6.33935 15.7727 4.31594 13.7334C3.99336 13.4083 3.72608 12.9613 3.59443 12.5227C2.39253 8.5366 1.22626 4.54036 0.0541872 0.546992C0.0145497 0.412827 0.0170928 0.26621 0 0.125839C0.0541872 0.0836523 0.109466 0.0418262 0.164739 0C0.914977 0.788041 1.6463 1.5947 2.41472 2.36313C10.0782 10.0218 17.7489 17.6703 25.4123 25.3287C32.3317 32.2423 39.2402 39.1667 46.1589 46.0825C52.3935 52.3164 58.6358 58.5437 64.8744 64.775C69.7474 69.6441 74.6202 74.5111 79.4783 79.3935C79.6387 79.554 79.774 79.9132 79.7049 80.1005C78.9834 82.0523 78.2175 83.9881 77.4625 85.9279C77.4476 85.9646 77.4047 85.9919 77.2422 86.1653" fill="white"/>
</svg>
